<svg width="31" height="24" viewBox="0 0 31 24" fill="none" xmlns="http://www.w3.org/2000/svg">
<path d="M12.7139 15.7616C12.7139 16.8431 12.1504 18.6129 10.8169 18.6129C9.48333 18.6129 8.91993 16.8431 8.91993 15.7616C8.91993 14.68 9.48333 12.9102 10.8169 12.9102C12.1504 12.9102 12.7139 14.68 12.7139 15.7616ZM27.905 13.1483C27.905 14.799 27.7396 16.5481 27.0005 18.0644C25.0415 22.0283 19.6556 21.9351 15.7996 21.9351C11.8817 21.9351 6.17529 22.0748 4.13877 18.0644C3.38412 16.5637 3.09467 14.799 3.09467 13.1483C3.09467 10.98 3.81313 8.93081 5.23973 7.2697C4.97095 6.45208 4.84173 5.59306 4.84173 4.74439C4.84173 3.63181 5.095 3.07293 5.59638 2.06384C7.93786 2.06384 9.43681 2.52958 11.2201 3.92677C12.719 3.56971 14.2593 3.40929 15.8048 3.40929C17.2004 3.40929 18.6063 3.55936 19.9605 3.88538C21.7179 2.5037 23.2169 2.06384 25.5325 2.06384C26.0391 3.07293 26.2872 3.63181 26.2872 4.74439C26.2872 5.59306 26.1528 6.43656 25.8892 7.23865C27.3106 8.91529 27.905 10.98 27.905 13.1483ZM24.5815 15.7616C24.5815 13.4898 23.2014 11.4872 20.7824 11.4872C19.8055 11.4872 18.8699 11.6631 17.8878 11.7977C17.1177 11.9167 16.3475 11.9633 15.5567 11.9633C14.771 11.9633 14.0009 11.9167 13.2256 11.7977C12.259 11.6631 11.3131 11.4872 10.331 11.4872C7.91201 11.4872 6.53193 13.4898 6.53193 15.7616C6.53193 20.305 10.6877 21.0036 14.3058 21.0036H16.7972C20.4309 21.0036 24.5815 20.3102 24.5815 15.7616ZM20.312 12.9102C18.9785 12.9102 18.4151 14.68 18.4151 15.7616C18.4151 16.8431 18.9785 18.6129 20.312 18.6129C21.6456 18.6129 22.209 16.8431 22.209 15.7616C22.209 14.68 21.6456 12.9102 20.312 12.9102Z" fill="#BABABA"/>
</svg>
