<svg width="13" height="17" viewBox="0 0 13 17" fill="none" xmlns="http://www.w3.org/2000/svg">
<path d="M1.6746 1.71902C1.6746 1.27902 1.83113 0.902485 2.1442 0.589418C2.4578 0.275818 2.8346 0.119018 3.2746 0.119018L9.6746 0.119018C10.1146 0.119019 10.4911 0.275819 10.8042 0.589419C11.1178 0.902485 11.2746 1.27902 11.2746 1.71902L11.2746 14.519C11.2746 14.959 11.1178 15.3358 10.8042 15.6494C10.4911 15.9625 10.1146 16.119 9.6746 16.119L3.2746 16.119C2.8346 16.119 2.4578 15.9625 2.1442 15.6494C1.83113 15.3358 1.6746 14.959 1.6746 14.519L1.6746 1.71902ZM4.0746 4.91902C4.0746 5.14568 4.1514 5.33582 4.305 5.48942C4.45806 5.64249 4.64793 5.71902 4.8746 5.71902L5.6746 5.71902L5.6746 6.51902C5.6746 6.74569 5.7514 6.93582 5.905 7.08942C6.05806 7.24249 6.24793 7.31902 6.4746 7.31902C6.70126 7.31902 6.8914 7.24249 7.045 7.08942C7.19806 6.93582 7.2746 6.74569 7.2746 6.51902L7.2746 5.71902L8.0746 5.71902C8.30126 5.71902 8.4914 5.64249 8.645 5.48942C8.79806 5.33582 8.8746 5.14569 8.8746 4.91902C8.8746 4.69235 8.79806 4.50222 8.645 4.34862C8.4914 4.19555 8.30126 4.11902 8.0746 4.11902L7.2746 4.11902L7.2746 3.31902C7.2746 3.09235 7.19806 2.90222 7.045 2.74862C6.8914 2.59555 6.70126 2.51902 6.4746 2.51902C6.24793 2.51902 6.05806 2.59555 5.905 2.74862C5.7514 2.90222 5.6746 3.09235 5.6746 3.31902L5.6746 4.11902L4.8746 4.11902C4.64793 4.11902 4.45806 4.19555 4.305 4.34862C4.1514 4.50222 4.0746 4.69235 4.0746 4.91902ZM4.0746 10.119C4.0746 10.4524 4.1914 10.7356 4.425 10.9686C4.65806 11.2022 4.94126 11.319 5.2746 11.319C5.60793 11.319 5.89113 11.2022 6.1242 10.9686C6.3578 10.7356 6.4746 10.4524 6.4746 10.119C6.4746 9.78569 6.3578 9.50248 6.1242 9.26942C5.89113 9.03582 5.60793 8.91902 5.2746 8.91902C4.94126 8.91902 4.65806 9.03582 4.425 9.26942C4.1914 9.50248 4.0746 9.78569 4.0746 10.119ZM6.4746 12.519C6.4746 12.8524 6.5914 13.1356 6.825 13.3686C7.05806 13.6022 7.34126 13.719 7.6746 13.719C8.00793 13.719 8.29113 13.6022 8.5242 13.3686C8.7578 13.1356 8.8746 12.8524 8.8746 12.519C8.8746 12.1857 8.7578 11.9025 8.5242 11.6694C8.29113 11.4358 8.00793 11.319 7.6746 11.319C7.34126 11.319 7.05806 11.4358 6.825 11.6694C6.5914 11.9025 6.4746 12.1857 6.4746 12.519Z" fill="#2B788B"/>
</svg>
