<svg width="13" height="16" viewBox="0 0 13 16" fill="none" xmlns="http://www.w3.org/2000/svg">
<path d="M12.8779 0.145004C12.8585 0.101615 12.8269 0.0648056 12.7871 0.03906C12.7472 0.0133145 12.7007 -0.000255464 12.6532 3.64241e-06H5.69971C5.65795 7.33269e-05 5.61688 0.0106378 5.58025 0.0307292C5.54362 0.0508207 5.51261 0.0797969 5.49006 0.115004L0.143896 8.615C0.118158 8.65201 0.10312 8.69542 0.10044 8.74045C0.0977594 8.78547 0.10754 8.83037 0.128704 8.87018C0.149869 8.90999 0.181595 8.94318 0.220388 8.96609C0.25918 8.98899 0.303532 9.00073 0.348558 9H4.17723L0.797815 15.625C0.778413 15.6644 0.769294 15.7081 0.771309 15.752C0.773324 15.7958 0.786407 15.8385 0.809337 15.876C0.832268 15.9134 0.864298 15.9444 0.902437 15.9661C0.940576 15.9878 0.983581 15.9995 1.02744 16H2.52496C2.5596 16.0002 2.59392 15.9932 2.62571 15.9795C2.65751 15.9657 2.6861 15.9454 2.70966 15.92L11.4802 6.425C11.515 6.38945 11.5384 6.3443 11.5474 6.29533C11.5565 6.24635 11.5507 6.1958 11.5309 6.15013C11.511 6.10447 11.478 6.06579 11.4361 6.03904C11.3941 6.01229 11.3452 5.9987 11.2955 6H7.93103L12.8379 0.410003C12.8696 0.374491 12.8902 0.330518 12.8973 0.283458C12.9044 0.236397 12.8976 0.188286 12.8779 0.145004Z" fill="#2B788B"/>
</svg>
